<svg width="1440" height="801" viewBox="0 0 1440 801" fill="none" xmlns="http://www.w3.org/2000/svg">
<path d="M-164.418 0H-206.523V42.1053M-164.418 0V42.1053M-164.418 0H-122.313M-164.418 42.1053H-206.523M-164.418 42.1053V84.2105M-164.418 42.1053H-122.313M-206.523 42.1053V84.2105M-164.418 84.2105H-206.523M-164.418 84.2105V126.316M-164.418 84.2105H-122.313M-206.523 84.2105V126.316M-164.418 126.316H-206.523M-164.418 126.316V168.421M-164.418 126.316H-122.313M-206.523 126.316V168.421M-164.418 168.421H-206.523M-164.418 168.421V210.526M-164.418 168.421H-122.313M-206.523 168.421V210.526M-164.418 210.526H-206.523M-164.418 210.526V252.632M-164.418 210.526H-122.313M-206.523 210.526V252.632M-164.418 252.632H-206.523M-164.418 252.632V294.737M-164.418 252.632H-122.313M-206.523 252.632V294.737M-164.418 294.737H-206.523M-164.418 294.737V336.842M-164.418 294.737H-122.313M-206.523 294.737V336.842M-164.418 336.842H-206.523M-164.418 336.842V378.947M-164.418 336.842H-122.313M-206.523 336.842V378.947M-164.418 378.947H-206.523M-164.418 378.947V421.053M-164.418 378.947H-122.313M-206.523 378.947V421.053M-164.418 421.053H-206.523M-164.418 421.053V463.158M-164.418 421.053H-122.313M-206.523 421.053V463.158M-164.418 463.158H-206.523M-164.418 463.158V505.263M-164.418 463.158H-122.313M-206.523 463.158V505.263M-164.418 505.263H-206.523M-164.418 505.263V547.368M-164.418 505.263H-122.313M-206.523 505.263V547.368M-164.418 547.368H-206.523M-164.418 547.368V589.474M-164.418 547.368H-122.313M-206.523 547.368V589.474M-164.418 589.474H-206.523M-164.418 589.474V631.579M-164.418 589.474H-122.313M-206.523 589.474V631.579M-164.418 631.579H-206.523M-164.418 631.579V673.684M-164.418 631.579H-122.313M-206.523 631.579V673.684M-164.418 673.684H-206.523M-164.418 673.684V715.789M-164.418 673.684H-122.313M-206.523 673.684V715.789M-164.418 715.789H-206.523M-164.418 715.789V757.895M-164.418 715.789H-122.313M-206.523 715.789V757.895M-164.418 757.895H-206.523M-164.418 757.895V800M-164.418 757.895H-122.313M-206.523 757.895V800H-164.418M-164.418 800H-122.313M-122.313 0V42.1053M-122.313 0H-80.2076M-122.313 42.1053V84.2105M-122.313 42.1053H-80.2076M-122.313 84.2105V126.316M-122.313 84.2105H-80.2076M-122.313 126.316V168.421M-122.313 126.316H-80.2076M-122.313 168.421V210.526M-122.313 168.421H-80.2076M-122.313 210.526V252.632M-122.313 210.526H-80.2076M-122.313 252.632V294.737M-122.313 252.632H-80.2076M-122.313 294.737V336.842M-122.313 294.737H-80.2076M-122.313 336.842V378.947M-122.313 336.842H-80.2076M-122.313 378.947V421.053M-122.313 378.947H-80.2076M-122.313 421.053V463.158M-122.313 421.053H-80.2076M-122.313 463.158V505.263M-122.313 463.158H-80.2076M-122.313 505.263V547.368M-122.313 505.263H-80.2076M-122.313 547.368V589.474M-122.313 547.368H-80.2076M-122.313 589.474V631.579M-122.313 589.474H-80.2076M-122.313 631.579V673.684M-122.313 631.579H-80.2076M-122.313 673.684V715.789M-122.313 673.684H-80.2076M-122.313 715.789V757.895M-122.313 715.789H-80.2076M-122.313 757.895V800M-122.313 757.895H-80.2076M-122.313 800H-80.2076M-80.2076 0V42.1053M-80.2076 0H-38.1024M-80.2076 42.1053V84.2105M-80.2076 42.1053H-38.1024M-80.2076 84.2105V126.316M-80.2076 84.2105H-38.1024M-80.2076 126.316V168.421M-80.2076 126.316H-38.1024M-80.2076 168.421V210.526M-80.2076 168.421H-38.1024M-80.2076 210.526V252.632M-80.2076 210.526H-38.1024M-80.2076 252.632V294.737M-80.2076 252.632H-38.1024M-80.2076 294.737V336.842M-80.2076 294.737H-38.1024M-80.2076 336.842V378.947M-80.2076 336.842H-38.1024M-80.2076 378.947V421.053M-80.2076 378.947H-38.1024M-80.2076 421.053V463.158M-80.2076 421.053H-38.1024M-80.2076 463.158V505.263M-80.2076 463.158H-38.1024M-80.2076 505.263V547.368M-80.2076 505.263H-38.1024M-80.2076 547.368V589.474M-80.2076 547.368H-38.1024M-80.2076 589.474V631.579M-80.2076 589.474H-38.1024M-80.2076 631.579V673.684M-80.2076 631.579H-38.1024M-80.2076 673.684V715.789M-80.2076 673.684H-38.1024M-80.2076 715.789V757.895M-80.2076 715.789H-38.1024M-80.2076 757.895V800M-80.2076 757.895H-38.1024M-80.2076 800H-38.1024M-38.1024 0V42.1053M-38.1024 0H4.00288M-38.1024 42.1053V84.2105M-38.1024 42.1053H4.00288M-38.1024 84.2105V126.316M-38.1024 84.2105H4.00288M-38.1024 126.316V168.421M-38.1024 126.316H4.00288M-38.1024 168.421V210.526M-38.1024 168.421H4.00288M-38.1024 210.526V252.632M-38.1024 210.526H4.00288M-38.1024 252.632V294.737M-38.1024 252.632H4.00288M-38.1024 294.737V336.842M-38.1024 294.737H4.00288M-38.1024 336.842V378.947M-38.1024 336.842H4.00288M-38.1024 378.947V421.053M-38.1024 378.947H4.00288M-38.1024 421.053V463.158M-38.1024 421.053H4.00288M-38.1024 463.158V505.263M-38.1024 463.158H4.00288M-38.1024 505.263V547.368M-38.1024 505.263H4.00288M-38.1024 547.368V589.474M-38.1024 547.368H4.00288M-38.1024 589.474V631.579M-38.1024 589.474H4.00288M-38.1024 631.579V673.684M-38.1024 631.579H4.00288M-38.1024 673.684V715.789M-38.1024 673.684H4.00288M-38.1024 715.789V757.895M-38.1024 715.789H4.00288M-38.1024 757.895V800M-38.1024 757.895H4.00288M-38.1024 800H4.00288M4.00288 0V42.1053M4.00288 0H46.1081M4.00288 42.1053V84.2105M4.00288 42.1053H46.1081M4.00288 84.2105V126.316M4.00288 84.2105H46.1081M4.00288 126.316V168.421M4.00288 126.316H46.1081M4.00288 168.421V210.526M4.00288 168.421H46.1081M4.00288 210.526V252.632M4.00288 210.526H46.1081M4.00288 252.632V294.737M4.00288 252.632H46.1081M4.00288 294.737V336.842M4.00288 294.737H46.1081M4.00288 336.842V378.947M4.00288 336.842H46.1081M4.00288 378.947V421.053M4.00288 378.947H46.1081M4.00288 421.053V463.158M4.00288 421.053H46.1081M4.00288 463.158V505.263M4.00288 463.158H46.1081M4.00288 505.263V547.368M4.00288 505.263H46.1081M4.00288 547.368V589.474M4.00288 547.368H46.1081M4.00288 589.474V631.579M4.00288 589.474H46.1081M4.00288 631.579V673.684M4.00288 631.579H46.1081M4.00288 673.684V715.789M4.00288 673.684H46.1081M4.00288 715.789V757.895M4.00288 715.789H46.1081M4.00288 757.895V800M4.00288 757.895H46.1081M4.00288 800H46.1081M46.1081 0V42.1053M46.1081 0H88.2134M46.1081 42.1053V84.2105M46.1081 42.1053H88.2134M46.1081 84.2105V126.316M46.1081 84.2105H88.2134M46.1081 126.316V168.421M46.1081 126.316H88.2134M46.1081 168.421V210.526M46.1081 168.421H88.2134M46.1081 210.526V252.632M46.1081 210.526H88.2134M46.1081 252.632V294.737M46.1081 252.632H88.2134M46.1081 294.737V336.842M46.1081 294.737H88.2134M46.1081 336.842V378.947M46.1081 336.842H88.2134M46.1081 378.947V421.053M46.1081 378.947H88.2134M46.1081 421.053V463.158M46.1081 421.053H88.2134M46.1081 463.158V505.263M46.1081 463.158H88.2134M46.1081 505.263V547.368M46.1081 505.263H88.2134M46.1081 547.368V589.474M46.1081 547.368H88.2134M46.1081 589.474V631.579M46.1081 589.474H88.2134M46.1081 631.579V673.684M46.1081 631.579H88.2134M46.1081 673.684V715.789M46.1081 673.684H88.2134M46.1081 715.789V757.895M46.1081 715.789H88.2134M46.1081 757.895V800M46.1081 757.895H88.2134M46.1081 800H88.2134M88.2134 0V42.1053M88.2134 0H130.319M88.2134 42.1053V84.2105M88.2134 42.1053H130.319M88.2134 84.2105V126.316M88.2134 84.2105H130.319M88.2134 126.316V168.421M88.2134 126.316H130.319M88.2134 168.421V210.526M88.2134 168.421H130.319M88.2134 210.526V252.632M88.2134 210.526H130.319M88.2134 252.632V294.737M88.2134 252.632H130.319M88.2134 294.737V336.842M88.2134 294.737H130.319M88.2134 336.842V378.947M88.2134 336.842H130.319M88.2134 378.947V421.053M88.2134 378.947H130.319M88.2134 421.053V463.158M88.2134 421.053H130.319M88.2134 463.158V505.263M88.2134 463.158H130.319M88.2134 505.263V547.368M88.2134 505.263H130.319M88.2134 547.368V589.474M88.2134 547.368H130.319M88.2134 589.474V631.579M88.2134 589.474H130.319M88.2134 631.579V673.684M88.2134 631.579H130.319M88.2134 673.684V715.789M88.2134 673.684H130.319M88.2134 715.789V757.895M88.2134 715.789H130.319M88.2134 757.895V800M88.2134 757.895H130.319M88.2134 800H130.319M130.319 0V42.1053M130.319 0H172.424M130.319 42.1053V84.2105M130.319 42.1053H172.424M130.319 84.2105V126.316M130.319 84.2105H172.424M130.319 126.316V168.421M130.319 126.316H172.424M130.319 168.421V210.526M130.319 168.421H172.424M130.319 210.526V252.632M130.319 210.526H172.424M130.319 252.632V294.737M130.319 252.632H172.424M130.319 294.737V336.842M130.319 294.737H172.424M130.319 336.842V378.947M130.319 336.842H172.424M130.319 378.947V421.053M130.319 378.947H172.424M130.319 421.053V463.158M130.319 421.053H172.424M130.319 463.158V505.263M130.319 463.158H172.424M130.319 505.263V547.368M130.319 505.263H172.424M130.319 547.368V589.474M130.319 547.368H172.424M130.319 589.474V631.579M130.319 589.474H172.424M130.319 631.579V673.684M130.319 631.579H172.424M130.319 673.684V715.789M130.319 673.684H172.424M130.319 715.789V757.895M130.319 715.789H172.424M130.319 757.895V800M130.319 757.895H172.424M130.319 800H172.424M172.424 0V42.1053M172.424 0H214.529M172.424 42.1053V84.2105M172.424 42.1053H214.529M172.424 84.2105V126.316M172.424 84.2105H214.529M172.424 126.316V168.421M172.424 126.316H214.529M172.424 168.421V210.526M172.424 168.421H214.529M172.424 210.526V252.632M172.424 210.526H214.529M172.424 252.632V294.737M172.424 252.632H214.529M172.424 294.737V336.842M172.424 294.737H214.529M172.424 336.842V378.947M172.424 336.842H214.529M172.424 378.947V421.053M172.424 378.947H214.529M172.424 421.053V463.158M172.424 421.053H214.529M172.424 463.158V505.263M172.424 463.158H214.529M172.424 505.263V547.368M172.424 505.263H214.529M172.424 547.368V589.474M172.424 547.368H214.529M172.424 589.474V631.579M172.424 589.474H214.529M172.424 631.579V673.684M172.424 631.579H214.529M172.424 673.684V715.789M172.424 673.684H214.529M172.424 715.789V757.895M172.424 715.789H214.529M172.424 757.895V800M172.424 757.895H214.529M172.424 800H214.529M214.529 0V42.1053M214.529 0H256.634M214.529 42.1053V84.2105M214.529 42.1053H256.634M214.529 84.2105V126.316M214.529 84.2105H256.634M214.529 126.316V168.421M214.529 126.316H256.634M214.529 168.421V210.526M214.529 168.421H256.634M214.529 210.526V252.632M214.529 210.526H256.634M214.529 252.632V294.737M214.529 252.632H256.634M214.529 294.737V336.842M214.529 294.737H256.634M214.529 336.842V378.947M214.529 336.842H256.634M214.529 378.947V421.053M214.529 378.947H256.634M214.529 421.053V463.158M214.529 421.053H256.634M214.529 463.158V505.263M214.529 463.158H256.634M214.529 505.263V547.368M214.529 505.263H256.634M214.529 547.368V589.474M214.529 547.368H256.634M214.529 589.474V631.579M214.529 589.474H256.634M214.529 631.579V673.684M214.529 631.579H256.634M214.529 673.684V715.789M214.529 673.684H256.634M214.529 715.789V757.895M214.529 715.789H256.634M214.529 757.895V800M214.529 757.895H256.634M214.529 800H256.634M256.634 0V42.1053M256.634 0H298.74M256.634 42.1053V84.2105M256.634 42.1053H298.74M256.634 84.2105V126.316M256.634 84.2105H298.74M256.634 126.316V168.421M256.634 126.316H298.74M256.634 168.421V210.526M256.634 168.421H298.74M256.634 210.526V252.632M256.634 210.526H298.74M256.634 252.632V294.737M256.634 252.632H298.74M256.634 294.737V336.842M256.634 294.737H298.74M256.634 336.842V378.947M256.634 336.842H298.74M256.634 378.947V421.053M256.634 378.947H298.74M256.634 421.053V463.158M256.634 421.053H298.74M256.634 463.158V505.263M256.634 463.158H298.74M256.634 505.263V547.368M256.634 505.263H298.74M256.634 547.368V589.474M256.634 547.368H298.74M256.634 589.474V631.579M256.634 589.474H298.74M256.634 631.579V673.684M256.634 631.579H298.74M256.634 673.684V715.789M256.634 673.684H298.74M256.634 715.789V757.895M256.634 715.789H298.74M256.634 757.895V800M256.634 757.895H298.74M256.634 800H298.74M298.74 0V42.1053M298.74 0H340.845M298.74 42.1053V84.2105M298.74 42.1053H340.845M298.74 84.2105V126.316M298.74 84.2105H340.845M298.74 126.316V168.421M298.74 126.316H340.845M298.74 168.421V210.526M298.74 168.421H340.845M298.74 210.526V252.632M298.74 210.526H340.845M298.74 252.632V294.737M298.74 252.632H340.845M298.74 294.737V336.842M298.74 294.737H340.845M298.74 336.842V378.947M298.74 336.842H340.845M298.74 378.947V421.053M298.74 378.947H340.845M298.74 421.053V463.158M298.74 421.053H340.845M298.74 463.158V505.263M298.74 463.158H340.845M298.74 505.263V547.368M298.74 505.263H340.845M298.74 547.368V589.474M298.74 547.368H340.845M298.74 589.474V631.579M298.74 589.474H340.845M298.74 631.579V673.684M298.74 631.579H340.845M298.74 673.684V715.789M298.74 673.684H340.845M298.74 715.789V757.895M298.74 715.789H340.845M298.74 757.895V800M298.74 757.895H340.845M298.74 800H340.845M340.845 0V42.1053M340.845 0H382.95M340.845 42.1053V84.2105M340.845 42.1053H382.95M340.845 84.2105V126.316M340.845 84.2105H382.95M340.845 126.316V168.421M340.845 126.316H382.95M340.845 168.421V210.526M340.845 168.421H382.95M340.845 210.526V252.632M340.845 210.526H382.95M340.845 252.632V294.737M340.845 252.632H382.95M340.845 294.737V336.842M340.845 294.737H382.95M340.845 336.842V378.947M340.845 336.842H382.95M340.845 378.947V421.053M340.845 378.947H382.95M340.845 421.053V463.158M340.845 421.053H382.95M340.845 463.158V505.263M340.845 463.158H382.95M340.845 505.263V547.368M340.845 505.263H382.95M340.845 547.368V589.474M340.845 547.368H382.95M340.845 589.474V631.579M340.845 589.474H382.95M340.845 631.579V673.684M340.845 631.579H382.95M340.845 673.684V715.789M340.845 673.684H382.95M340.845 715.789V757.895M340.845 715.789H382.95M340.845 757.895V800M340.845 757.895H382.95M340.845 800H382.95M382.95 0V42.1053M382.95 0H425.055M382.95 42.1053V84.2105M382.95 42.1053H425.055M382.95 84.2105V126.316M382.95 84.2105H425.055M382.95 126.316V168.421M382.95 126.316H425.055M382.95 168.421V210.526M382.95 168.421H425.055M382.95 210.526V252.632M382.95 210.526H425.055M382.95 252.632V294.737M382.95 252.632H425.055M382.95 294.737V336.842M382.95 294.737H425.055M382.95 336.842V378.947M382.95 336.842H425.055M382.95 378.947V421.053M382.95 378.947H425.055M382.95 421.053V463.158M382.95 421.053H425.055M382.95 463.158V505.263M382.95 463.158H425.055M382.95 505.263V547.368M382.95 505.263H425.055M382.95 547.368V589.474M382.95 547.368H425.055M382.95 589.474V631.579M382.95 589.474H425.055M382.95 631.579V673.684M382.95 631.579H425.055M382.95 673.684V715.789M382.95 673.684H425.055M382.95 715.789V757.895M382.95 715.789H425.055M382.95 757.895V800M382.95 757.895H425.055M382.95 800H425.055M425.055 0V42.1053M425.055 0H467.161M425.055 42.1053V84.2105M425.055 42.1053H467.161M425.055 84.2105V126.316M425.055 84.2105H467.161M425.055 126.316V168.421M425.055 126.316H467.161M425.055 168.421V210.526M425.055 168.421H467.161M425.055 210.526V252.632M425.055 210.526H467.161M425.055 252.632V294.737M425.055 252.632H467.161M425.055 294.737V336.842M425.055 294.737H467.161M425.055 336.842V378.947M425.055 336.842H467.161M425.055 378.947V421.053M425.055 378.947H467.161M425.055 421.053V463.158M425.055 421.053H467.161M425.055 463.158V505.263M425.055 463.158H467.161M425.055 505.263V547.368M425.055 505.263H467.161M425.055 547.368V589.474M425.055 547.368H467.161M425.055 589.474V631.579M425.055 589.474H467.161M425.055 631.579V673.684M425.055 631.579H467.161M425.055 673.684V715.789M425.055 673.684H467.161M425.055 715.789V757.895M425.055 715.789H467.161M425.055 757.895V800M425.055 757.895H467.161M425.055 800H467.161M467.161 0V42.1053M467.161 0H509.266M467.161 42.1053V84.2105M467.161 42.1053H509.266M467.161 84.2105V126.316M467.161 84.2105H509.266M467.161 126.316V168.421M467.161 126.316H509.266M467.161 168.421V210.526M467.161 168.421H509.266M467.161 210.526V252.632M467.161 210.526H509.266M467.161 252.632V294.737M467.161 252.632H509.266M467.161 294.737V336.842M467.161 294.737H509.266M467.161 336.842V378.947M467.161 336.842H509.266M467.161 378.947V421.053M467.161 378.947H509.266M467.161 421.053V463.158M467.161 421.053H509.266M467.161 463.158V505.263M467.161 463.158H509.266M467.161 505.263V547.368M467.161 505.263H509.266M467.161 547.368V589.474M467.161 547.368H509.266M467.161 589.474V631.579M467.161 589.474H509.266M467.161 631.579V673.684M467.161 631.579H509.266M467.161 673.684V715.789M467.161 673.684H509.266M467.161 715.789V757.895M467.161 715.789H509.266M467.161 757.895V800M467.161 757.895H509.266M467.161 800H509.266M509.266 0V42.1053M509.266 0H551.371M509.266 42.1053V84.2105M509.266 42.1053H551.371M509.266 84.2105V126.316M509.266 84.2105H551.371M509.266 126.316V168.421M509.266 126.316H551.371M509.266 168.421V210.526M509.266 168.421H551.371M509.266 210.526V252.632M509.266 210.526H551.371M509.266 252.632V294.737M509.266 252.632H551.371M509.266 294.737V336.842M509.266 294.737H551.371M509.266 336.842V378.947M509.266 336.842H551.371M509.266 378.947V421.053M509.266 378.947H551.371M509.266 421.053V463.158M509.266 421.053H551.371M509.266 463.158V505.263M509.266 463.158H551.371M509.266 505.263V547.368M509.266 505.263H551.371M509.266 547.368V589.474M509.266 547.368H551.371M509.266 589.474V631.579M509.266 589.474H551.371M509.266 631.579V673.684M509.266 631.579H551.371M509.266 673.684V715.789M509.266 673.684H551.371M509.266 715.789V757.895M509.266 715.789H551.371M509.266 757.895V800M509.266 757.895H551.371M509.266 800H551.371M551.371 0V42.1053M551.371 0H593.477M551.371 42.1053V84.2105M551.371 42.1053H593.477M551.371 84.2105V126.316M551.371 84.2105H593.477M551.371 126.316V168.421M551.371 126.316H593.477M551.371 168.421V210.526M551.371 168.421H593.477M551.371 210.526V252.632M551.371 210.526H593.477M551.371 252.632V294.737M551.371 252.632H593.477M551.371 294.737V336.842M551.371 294.737H593.477M551.371 336.842V378.947M551.371 336.842H593.477M551.371 378.947V421.053M551.371 378.947H593.477M551.371 421.053V463.158M551.371 421.053H593.477M551.371 463.158V505.263M551.371 463.158H593.477M551.371 505.263V547.368M551.371 505.263H593.477M551.371 547.368V589.474M551.371 547.368H593.477M551.371 589.474V631.579M551.371 589.474H593.477M551.371 631.579V673.684M551.371 631.579H593.477M551.371 673.684V715.789M551.371 673.684H593.477M551.371 715.789V757.895M551.371 715.789H593.477M551.371 757.895V800M551.371 757.895H593.477M551.371 800H593.477M593.477 0V42.1053M593.477 0H635.582M593.477 42.1053V84.2105M593.477 42.1053H635.582M593.477 84.2105V126.316M593.477 84.2105H635.582M593.477 126.316V168.421M593.477 126.316H635.582M593.477 168.421V210.526M593.477 168.421H635.582M593.477 210.526V252.632M593.477 210.526H635.582M593.477 252.632V294.737M593.477 252.632H635.582M593.477 294.737V336.842M593.477 294.737H635.582M593.477 336.842V378.947M593.477 336.842H635.582M593.477 378.947V421.053M593.477 378.947H635.582M593.477 421.053V463.158M593.477 421.053H635.582M593.477 463.158V505.263M593.477 463.158H635.582M593.477 505.263V547.368M593.477 505.263H635.582M593.477 547.368V589.474M593.477 547.368H635.582M593.477 589.474V631.579M593.477 589.474H635.582M593.477 631.579V673.684M593.477 631.579H635.582M593.477 673.684V715.789M593.477 673.684H635.582M593.477 715.789V757.895M593.477 715.789H635.582M593.477 757.895V800M593.477 757.895H635.582M593.477 800H635.582M635.582 0V42.1053M635.582 0H677.687M635.582 42.1053V84.2105M635.582 42.1053H677.687M635.582 84.2105V126.316M635.582 84.2105H677.687M635.582 126.316V168.421M635.582 126.316H677.687M635.582 168.421V210.526M635.582 168.421H677.687M635.582 210.526V252.632M635.582 210.526H677.687M635.582 252.632V294.737M635.582 252.632H677.687M635.582 294.737V336.842M635.582 294.737H677.687M635.582 336.842V378.947M635.582 336.842H677.687M635.582 378.947V421.053M635.582 378.947H677.687M635.582 421.053V463.158M635.582 421.053H677.687M635.582 463.158V505.263M635.582 463.158H677.687M635.582 505.263V547.368M635.582 505.263H677.687M635.582 547.368V589.474M635.582 547.368H677.687M635.582 589.474V631.579M635.582 589.474H677.687M635.582 631.579V673.684M635.582 631.579H677.687M635.582 673.684V715.789M635.582 673.684H677.687M635.582 715.789V757.895M635.582 715.789H677.687M635.582 757.895V800M635.582 757.895H677.687M635.582 800H677.687M677.687 0V42.1053M677.687 0H719.792M677.687 42.1053V84.2105M677.687 42.1053H719.792M677.687 84.2105V126.316M677.687 84.2105H719.792M677.687 126.316V168.421M677.687 126.316H719.792M677.687 168.421V210.526M677.687 168.421H719.792M677.687 210.526V252.632M677.687 210.526H719.792M677.687 252.632V294.737M677.687 252.632H719.792M677.687 294.737V336.842M677.687 294.737H719.792M677.687 336.842V378.947M677.687 336.842H719.792M677.687 378.947V421.053M677.687 378.947H719.792M677.687 421.053V463.158M677.687 421.053H719.792M677.687 463.158V505.263M677.687 463.158H719.792M677.687 505.263V547.368M677.687 505.263H719.792M677.687 547.368V589.474M677.687 547.368H719.792M677.687 589.474V631.579M677.687 589.474H719.792M677.687 631.579V673.684M677.687 631.579H719.792M677.687 673.684V715.789M677.687 673.684H719.792M677.687 715.789V757.895M677.687 715.789H719.792M677.687 757.895V800M677.687 757.895H719.792M677.687 800H719.792M719.792 0V42.1053M719.792 0H761.898M719.792 42.1053V84.2105M719.792 42.1053H761.898M719.792 84.2105V126.316M719.792 84.2105H761.898M719.792 126.316V168.421M719.792 126.316H761.898M719.792 168.421V210.526M719.792 168.421H761.898M719.792 210.526V252.632M719.792 210.526H761.898M719.792 252.632V294.737M719.792 252.632H761.898M719.792 294.737V336.842M719.792 294.737H761.898M719.792 336.842V378.947M719.792 336.842H761.898M719.792 378.947V421.053M719.792 378.947H761.898M719.792 421.053V463.158M719.792 421.053H761.898M719.792 463.158V505.263M719.792 463.158H761.898M719.792 505.263V547.368M719.792 505.263H761.898M719.792 547.368V589.474M719.792 547.368H761.898M719.792 589.474V631.579M719.792 589.474H761.898M719.792 631.579V673.684M719.792 631.579H761.898M719.792 673.684V715.789M719.792 673.684H761.898M719.792 715.789V757.895M719.792 715.789H761.898M719.792 757.895V800M719.792 757.895H761.898M719.792 800H761.898M761.898 0V42.1053M761.898 0H804.003M761.898 42.1053V84.2105M761.898 42.1053H804.003M761.898 84.2105V126.316M761.898 84.2105H804.003M761.898 126.316V168.421M761.898 126.316H804.003M761.898 168.421V210.526M761.898 168.421H804.003M761.898 210.526V252.632M761.898 210.526H804.003M761.898 252.632V294.737M761.898 252.632H804.003M761.898 294.737V336.842M761.898 294.737H804.003M761.898 336.842V378.947M761.898 336.842H804.003M761.898 378.947V421.053M761.898 378.947H804.003M761.898 421.053V463.158M761.898 421.053H804.003M761.898 463.158V505.263M761.898 463.158H804.003M761.898 505.263V547.368M761.898 505.263H804.003M761.898 547.368V589.474M761.898 547.368H804.003M761.898 589.474V631.579M761.898 589.474H804.003M761.898 631.579V673.684M761.898 631.579H804.003M761.898 673.684V715.789M761.898 673.684H804.003M761.898 715.789V757.895M761.898 715.789H804.003M761.898 757.895V800M761.898 757.895H804.003M761.898 800H804.003M804.003 0V42.1053M804.003 0H846.108M804.003 42.1053V84.2105M804.003 42.1053H846.108M804.003 84.2105V126.316M804.003 84.2105H846.108M804.003 126.316V168.421M804.003 126.316H846.108M804.003 168.421V210.526M804.003 168.421H846.108M804.003 210.526V252.632M804.003 210.526H846.108M804.003 252.632V294.737M804.003 252.632H846.108M804.003 294.737V336.842M804.003 294.737H846.108M804.003 336.842V378.947M804.003 336.842H846.108M804.003 378.947V421.053M804.003 378.947H846.108M804.003 421.053V463.158M804.003 421.053H846.108M804.003 463.158V505.263M804.003 463.158H846.108M804.003 505.263V547.368M804.003 505.263H846.108M804.003 547.368V589.474M804.003 547.368H846.108M804.003 589.474V631.579M804.003 589.474H846.108M804.003 631.579V673.684M804.003 631.579H846.108M804.003 673.684V715.789M804.003 673.684H846.108M804.003 715.789V757.895M804.003 715.789H846.108M804.003 757.895V800M804.003 757.895H846.108M804.003 800H846.108M846.108 0V42.1053M846.108 0H888.213M846.108 42.1053V84.2105M846.108 42.1053H888.213M846.108 84.2105V126.316M846.108 84.2105H888.213M846.108 126.316V168.421M846.108 126.316H888.213M846.108 168.421V210.526M846.108 168.421H888.213M846.108 210.526V252.632M846.108 210.526H888.213M846.108 252.632V294.737M846.108 252.632H888.213M846.108 294.737V336.842M846.108 294.737H888.213M846.108 336.842V378.947M846.108 336.842H888.213M846.108 378.947V421.053M846.108 378.947H888.213M846.108 421.053V463.158M846.108 421.053H888.213M846.108 463.158V505.263M846.108 463.158H888.213M846.108 505.263V547.368M846.108 505.263H888.213M846.108 547.368V589.474M846.108 547.368H888.213M846.108 589.474V631.579M846.108 589.474H888.213M846.108 631.579V673.684M846.108 631.579H888.213M846.108 673.684V715.789M846.108 673.684H888.213M846.108 715.789V757.895M846.108 715.789H888.213M846.108 757.895V800M846.108 757.895H888.213M846.108 800H888.213M888.213 0V42.1053M888.213 0H930.319M888.213 42.1053V84.2105M888.213 42.1053H930.319M888.213 84.2105V126.316M888.213 84.2105H930.319M888.213 126.316V168.421M888.213 126.316H930.319M888.213 168.421V210.526M888.213 168.421H930.319M888.213 210.526V252.632M888.213 210.526H930.319M888.213 252.632V294.737M888.213 252.632H930.319M888.213 294.737V336.842M888.213 294.737H930.319M888.213 336.842V378.947M888.213 336.842H930.319M888.213 378.947V421.053M888.213 378.947H930.319M888.213 421.053V463.158M888.213 421.053H930.319M888.213 463.158V505.263M888.213 463.158H930.319M888.213 505.263V547.368M888.213 505.263H930.319M888.213 547.368V589.474M888.213 547.368H930.319M888.213 589.474V631.579M888.213 589.474H930.319M888.213 631.579V673.684M888.213 631.579H930.319M888.213 673.684V715.789M888.213 673.684H930.319M888.213 715.789V757.895M888.213 715.789H930.319M888.213 757.895V800M888.213 757.895H930.319M888.213 800H930.319M930.319 0V42.1053M930.319 0H972.424M930.319 42.1053V84.2105M930.319 42.1053H972.424M930.319 84.2105V126.316M930.319 84.2105H972.424M930.319 126.316V168.421M930.319 126.316H972.424M930.319 168.421V210.526M930.319 168.421H972.424M930.319 210.526V252.632M930.319 210.526H972.424M930.319 252.632V294.737M930.319 252.632H972.424M930.319 294.737V336.842M930.319 294.737H972.424M930.319 336.842V378.947M930.319 336.842H972.424M930.319 378.947V421.053M930.319 378.947H972.424M930.319 421.053V463.158M930.319 421.053H972.424M930.319 463.158V505.263M930.319 463.158H972.424M930.319 505.263V547.368M930.319 505.263H972.424M930.319 547.368V589.474M930.319 547.368H972.424M930.319 589.474V631.579M930.319 589.474H972.424M930.319 631.579V673.684M930.319 631.579H972.424M930.319 673.684V715.789M930.319 673.684H972.424M930.319 715.789V757.895M930.319 715.789H972.424M930.319 757.895V800M930.319 757.895H972.424M930.319 800H972.424M972.424 0V42.1053M972.424 0H1014.53M972.424 42.1053V84.2105M972.424 42.1053H1014.53M972.424 84.2105V126.316M972.424 84.2105H1014.53M972.424 126.316V168.421M972.424 126.316H1014.53M972.424 168.421V210.526M972.424 168.421H1014.53M972.424 210.526V252.632M972.424 210.526H1014.53M972.424 252.632V294.737M972.424 252.632H1014.53M972.424 294.737V336.842M972.424 294.737H1014.53M972.424 336.842V378.947M972.424 336.842H1014.53M972.424 378.947V421.053M972.424 378.947H1014.53M972.424 421.053V463.158M972.424 421.053H1014.53M972.424 463.158V505.263M972.424 463.158H1014.53M972.424 505.263V547.368M972.424 505.263H1014.53M972.424 547.368V589.474M972.424 547.368H1014.53M972.424 589.474V631.579M972.424 589.474H1014.53M972.424 631.579V673.684M972.424 631.579H1014.53M972.424 673.684V715.789M972.424 673.684H1014.53M972.424 715.789V757.895M972.424 715.789H1014.53M972.424 757.895V800M972.424 757.895H1014.53M972.424 800H1014.53M1014.53 0V42.1053M1014.53 0H1056.63M1014.53 42.1053V84.2105M1014.53 42.1053H1056.63M1014.53 84.2105V126.316M1014.53 84.2105H1056.63M1014.53 126.316V168.421M1014.53 126.316H1056.63M1014.53 168.421V210.526M1014.53 168.421H1056.63M1014.53 210.526V252.632M1014.53 210.526H1056.63M1014.53 252.632V294.737M1014.53 252.632H1056.63M1014.53 294.737V336.842M1014.53 294.737H1056.63M1014.53 336.842V378.947M1014.53 336.842H1056.63M1014.53 378.947V421.053M1014.53 378.947H1056.63M1014.53 421.053V463.158M1014.53 421.053H1056.63M1014.53 463.158V505.263M1014.53 463.158H1056.63M1014.53 505.263V547.368M1014.53 505.263H1056.63M1014.53 547.368V589.474M1014.53 547.368H1056.63M1014.53 589.474V631.579M1014.53 589.474H1056.63M1014.53 631.579V673.684M1014.53 631.579H1056.63M1014.53 673.684V715.789M1014.53 673.684H1056.63M1014.53 715.789V757.895M1014.53 715.789H1056.63M1014.53 757.895V800M1014.53 757.895H1056.63M1014.53 800H1056.63M1056.63 0V42.1053M1056.63 0H1098.74M1056.63 42.1053V84.2105M1056.63 42.1053H1098.74M1056.63 84.2105V126.316M1056.63 84.2105H1098.74M1056.63 126.316V168.421M1056.63 126.316H1098.74M1056.63 168.421V210.526M1056.63 168.421H1098.74M1056.63 210.526V252.632M1056.63 210.526H1098.74M1056.63 252.632V294.737M1056.63 252.632H1098.74M1056.63 294.737V336.842M1056.63 294.737H1098.74M1056.63 336.842V378.947M1056.63 336.842H1098.74M1056.63 378.947V421.053M1056.63 378.947H1098.74M1056.63 421.053V463.158M1056.63 421.053H1098.74M1056.63 463.158V505.263M1056.63 463.158H1098.74M1056.63 505.263V547.368M1056.63 505.263H1098.74M1056.63 547.368V589.474M1056.63 547.368H1098.74M1056.63 589.474V631.579M1056.63 589.474H1098.74M1056.63 631.579V673.684M1056.63 631.579H1098.74M1056.63 673.684V715.789M1056.63 673.684H1098.74M1056.63 715.789V757.895M1056.63 715.789H1098.74M1056.63 757.895V800M1056.63 757.895H1098.74M1056.63 800H1098.74M1098.74 0V42.1053M1098.74 0H1140.85M1098.74 42.1053V84.2105M1098.74 42.1053H1140.85M1098.74 84.2105V126.316M1098.74 84.2105H1140.85M1098.74 126.316V168.421M1098.74 126.316H1140.85M1098.74 168.421V210.526M1098.74 168.421H1140.85M1098.74 210.526V252.632M1098.74 210.526H1140.85M1098.74 252.632V294.737M1098.74 252.632H1140.85M1098.74 294.737V336.842M1098.74 294.737H1140.85M1098.74 336.842V378.947M1098.74 336.842H1140.85M1098.74 378.947V421.053M1098.74 378.947H1140.85M1098.74 421.053V463.158M1098.74 421.053H1140.85M1098.74 463.158V505.263M1098.74 463.158H1140.85M1098.74 505.263V547.368M1098.74 505.263H1140.85M1098.74 547.368V589.474M1098.74 547.368H1140.85M1098.74 589.474V631.579M1098.74 589.474H1140.85M1098.74 631.579V673.684M1098.74 631.579H1140.85M1098.74 673.684V715.789M1098.74 673.684H1140.85M1098.74 715.789V757.895M1098.74 715.789H1140.85M1098.74 757.895V800M1098.74 757.895H1140.85M1098.74 800H1140.85M1140.85 0V42.1053M1140.85 0H1182.95M1140.85 42.1053V84.2105M1140.85 42.1053H1182.95M1140.85 84.2105V126.316M1140.85 84.2105H1182.95M1140.85 126.316V168.421M1140.85 126.316H1182.95M1140.85 168.421V210.526M1140.85 168.421H1182.95M1140.85 210.526V252.632M1140.85 210.526H1182.95M1140.85 252.632V294.737M1140.85 252.632H1182.95M1140.85 294.737V336.842M1140.85 294.737H1182.95M1140.85 336.842V378.947M1140.85 336.842H1182.95M1140.85 378.947V421.053M1140.85 378.947H1182.95M1140.85 421.053V463.158M1140.85 421.053H1182.95M1140.85 463.158V505.263M1140.85 463.158H1182.95M1140.85 505.263V547.368M1140.85 505.263H1182.95M1140.85 547.368V589.474M1140.85 547.368H1182.95M1140.85 589.474V631.579M1140.85 589.474H1182.95M1140.85 631.579V673.684M1140.85 631.579H1182.95M1140.85 673.684V715.789M1140.85 673.684H1182.95M1140.85 715.789V757.895M1140.85 715.789H1182.95M1140.85 757.895V800M1140.85 757.895H1182.95M1140.85 800H1182.95M1182.95 0V42.1053M1182.95 0H1225.06M1182.95 42.1053V84.2105M1182.95 42.1053H1225.06M1182.95 84.2105V126.316M1182.95 84.2105H1225.06M1182.95 126.316V168.421M1182.95 126.316H1225.06M1182.95 168.421V210.526M1182.95 168.421H1225.06M1182.95 210.526V252.632M1182.95 210.526H1225.06M1182.95 252.632V294.737M1182.95 252.632H1225.06M1182.95 294.737V336.842M1182.95 294.737H1225.06M1182.95 336.842V378.947M1182.95 336.842H1225.06M1182.95 378.947V421.053M1182.95 378.947H1225.06M1182.95 421.053V463.158M1182.95 421.053H1225.06M1182.95 463.158V505.263M1182.95 463.158H1225.06M1182.95 505.263V547.368M1182.95 505.263H1225.06M1182.95 547.368V589.474M1182.95 547.368H1225.06M1182.95 589.474V631.579M1182.95 589.474H1225.06M1182.95 631.579V673.684M1182.95 631.579H1225.06M1182.95 673.684V715.789M1182.95 673.684H1225.06M1182.95 715.789V757.895M1182.95 715.789H1225.06M1182.95 757.895V800M1182.95 757.895H1225.06M1182.95 800H1225.06M1225.06 0V42.1053M1225.06 0H1267.16M1225.06 42.1053V84.2105M1225.06 42.1053H1267.16M1225.06 84.2105V126.316M1225.06 84.2105H1267.16M1225.06 126.316V168.421M1225.06 126.316H1267.16M1225.06 168.421V210.526M1225.06 168.421H1267.16M1225.06 210.526V252.632M1225.06 210.526H1267.16M1225.06 252.632V294.737M1225.06 252.632H1267.16M1225.06 294.737V336.842M1225.06 294.737H1267.16M1225.06 336.842V378.947M1225.06 336.842H1267.16M1225.06 378.947V421.053M1225.06 378.947H1267.16M1225.06 421.053V463.158M1225.06 421.053H1267.16M1225.06 463.158V505.263M1225.06 463.158H1267.16M1225.06 505.263V547.368M1225.06 505.263H1267.16M1225.06 547.368V589.474M1225.06 547.368H1267.16M1225.06 589.474V631.579M1225.06 589.474H1267.16M1225.06 631.579V673.684M1225.06 631.579H1267.16M1225.06 673.684V715.789M1225.06 673.684H1267.16M1225.06 715.789V757.895M1225.06 715.789H1267.16M1225.06 757.895V800M1225.06 757.895H1267.16M1225.06 800H1267.16M1267.16 0V42.1053M1267.16 0H1309.27M1267.16 42.1053V84.2105M1267.16 42.1053H1309.27M1267.16 84.2105V126.316M1267.16 84.2105H1309.27M1267.16 126.316V168.421M1267.16 126.316H1309.27M1267.16 168.421V210.526M1267.16 168.421H1309.27M1267.16 210.526V252.632M1267.16 210.526H1309.27M1267.16 252.632V294.737M1267.16 252.632H1309.27M1267.16 294.737V336.842M1267.16 294.737H1309.27M1267.16 336.842V378.947M1267.16 336.842H1309.27M1267.16 378.947V421.053M1267.16 378.947H1309.27M1267.16 421.053V463.158M1267.16 421.053H1309.27M1267.16 463.158V505.263M1267.16 463.158H1309.27M1267.16 505.263V547.368M1267.16 505.263H1309.27M1267.16 547.368V589.474M1267.16 547.368H1309.27M1267.16 589.474V631.579M1267.16 589.474H1309.27M1267.16 631.579V673.684M1267.16 631.579H1309.27M1267.16 673.684V715.789M1267.16 673.684H1309.27M1267.16 715.789V757.895M1267.16 715.789H1309.27M1267.16 757.895V800M1267.16 757.895H1309.27M1267.16 800H1309.27M1309.27 0V42.1053M1309.27 0H1351.37M1309.27 42.1053V84.2105M1309.27 42.1053H1351.37M1309.27 84.2105V126.316M1309.27 84.2105H1351.37M1309.27 126.316V168.421M1309.27 126.316H1351.37M1309.27 168.421V210.526M1309.27 168.421H1351.37M1309.27 210.526V252.632M1309.27 210.526H1351.37M1309.27 252.632V294.737M1309.27 252.632H1351.37M1309.27 294.737V336.842M1309.27 294.737H1351.37M1309.27 336.842V378.947M1309.27 336.842H1351.37M1309.27 378.947V421.053M1309.27 378.947H1351.37M1309.27 421.053V463.158M1309.27 421.053H1351.37M1309.27 463.158V505.263M1309.27 463.158H1351.37M1309.27 505.263V547.368M1309.27 505.263H1351.37M1309.27 547.368V589.474M1309.27 547.368H1351.37M1309.27 589.474V631.579M1309.27 589.474H1351.37M1309.27 631.579V673.684M1309.27 631.579H1351.37M1309.27 673.684V715.789M1309.27 673.684H1351.37M1309.27 715.789V757.895M1309.27 715.789H1351.37M1309.27 757.895V800M1309.27 757.895H1351.37M1309.27 800H1351.37M1351.37 0V42.1053M1351.37 0H1393.48M1351.37 42.1053V84.2105M1351.37 42.1053H1393.48M1351.37 84.2105V126.316M1351.37 84.2105H1393.48M1351.37 126.316V168.421M1351.37 126.316H1393.48M1351.37 168.421V210.526M1351.37 168.421H1393.48M1351.37 210.526V252.632M1351.37 210.526H1393.48M1351.37 252.632V294.737M1351.37 252.632H1393.48M1351.37 294.737V336.842M1351.37 294.737H1393.48M1351.37 336.842V378.947M1351.37 336.842H1393.48M1351.37 378.947V421.053M1351.37 378.947H1393.48M1351.37 421.053V463.158M1351.37 421.053H1393.48M1351.37 463.158V505.263M1351.37 463.158H1393.48M1351.37 505.263V547.368M1351.37 505.263H1393.48M1351.37 547.368V589.474M1351.37 547.368H1393.48M1351.37 589.474V631.579M1351.37 589.474H1393.48M1351.37 631.579V673.684M1351.37 631.579H1393.48M1351.37 673.684V715.789M1351.37 673.684H1393.48M1351.37 715.789V757.895M1351.37 715.789H1393.48M1351.37 757.895V800M1351.37 757.895H1393.48M1351.37 800H1393.48M1393.48 0V42.1053M1393.48 0H1435.58M1393.48 42.1053V84.2105M1393.48 42.1053H1435.58M1393.48 84.2105V126.316M1393.48 84.2105H1435.58M1393.48 126.316V168.421M1393.48 126.316H1435.58M1393.48 168.421V210.526M1393.48 168.421H1435.58M1393.48 210.526V252.632M1393.48 210.526H1435.58M1393.48 252.632V294.737M1393.48 252.632H1435.58M1393.48 294.737V336.842M1393.48 294.737H1435.58M1393.48 336.842V378.947M1393.48 336.842H1435.58M1393.48 378.947V421.053M1393.48 378.947H1435.58M1393.48 421.053V463.158M1393.48 421.053H1435.58M1393.48 463.158V505.263M1393.48 463.158H1435.58M1393.48 505.263V547.368M1393.48 505.263H1435.58M1393.48 547.368V589.474M1393.48 547.368H1435.58M1393.48 589.474V631.579M1393.48 589.474H1435.58M1393.48 631.579V673.684M1393.48 631.579H1435.58M1393.48 673.684V715.789M1393.48 673.684H1435.58M1393.48 715.789V757.895M1393.48 715.789H1435.58M1393.48 757.895V800M1393.48 757.895H1435.58M1393.48 800H1435.58M1435.58 0V42.1053M1435.58 0H1477.69M1435.58 42.1053V84.2105M1435.58 42.1053H1477.69M1435.58 84.2105V126.316M1435.58 84.2105H1477.69M1435.58 126.316V168.421M1435.58 126.316H1477.69M1435.58 168.421V210.526M1435.58 168.421H1477.69M1435.58 210.526V252.632M1435.58 210.526H1477.69M1435.58 252.632V294.737M1435.58 252.632H1477.69M1435.58 294.737V336.842M1435.58 294.737H1477.69M1435.58 336.842V378.947M1435.58 336.842H1477.69M1435.58 378.947V421.053M1435.58 378.947H1477.69M1435.58 421.053V463.158M1435.58 421.053H1477.69M1435.58 463.158V505.263M1435.58 463.158H1477.69M1435.58 505.263V547.368M1435.58 505.263H1477.69M1435.58 547.368V589.474M1435.58 547.368H1477.69M1435.58 589.474V631.579M1435.58 589.474H1477.69M1435.58 631.579V673.684M1435.58 631.579H1477.69M1435.58 673.684V715.789M1435.58 673.684H1477.69M1435.58 715.789V757.895M1435.58 715.789H1477.69M1435.58 757.895V800M1435.58 757.895H1477.69M1435.58 800H1477.69M1477.69 0V42.1053M1477.69 0H1519.79M1477.69 42.1053V84.2105M1477.69 42.1053H1519.79M1477.69 84.2105V126.316M1477.69 84.2105H1519.79M1477.69 126.316V168.421M1477.69 126.316H1519.79M1477.69 168.421V210.526M1477.69 168.421H1519.79M1477.69 210.526V252.632M1477.69 210.526H1519.79M1477.69 252.632V294.737M1477.69 252.632H1519.79M1477.69 294.737V336.842M1477.69 294.737H1519.79M1477.69 336.842V378.947M1477.69 336.842H1519.79M1477.69 378.947V421.053M1477.69 378.947H1519.79M1477.69 421.053V463.158M1477.69 421.053H1519.79M1477.69 463.158V505.263M1477.69 463.158H1519.79M1477.69 505.263V547.368M1477.69 505.263H1519.79M1477.69 547.368V589.474M1477.69 547.368H1519.79M1477.69 589.474V631.579M1477.69 589.474H1519.79M1477.69 631.579V673.684M1477.69 631.579H1519.79M1477.69 673.684V715.789M1477.69 673.684H1519.79M1477.69 715.789V757.895M1477.69 715.789H1519.79M1477.69 757.895V800M1477.69 757.895H1519.79M1477.69 800H1519.79M1519.79 0V42.1053M1519.79 0H1561.9M1519.79 42.1053V84.2105M1519.79 42.1053H1561.9M1519.79 84.2105V126.316M1519.79 84.2105H1561.9M1519.79 126.316V168.421M1519.79 126.316H1561.9M1519.79 168.421V210.526M1519.79 168.421H1561.9M1519.79 210.526V252.632M1519.79 210.526H1561.9M1519.79 252.632V294.737M1519.79 252.632H1561.9M1519.79 294.737V336.842M1519.79 294.737H1561.9M1519.79 336.842V378.947M1519.79 336.842H1561.9M1519.79 378.947V421.053M1519.79 378.947H1561.9M1519.79 421.053V463.158M1519.79 421.053H1561.9M1519.79 463.158V505.263M1519.79 463.158H1561.9M1519.79 505.263V547.368M1519.79 505.263H1561.9M1519.79 547.368V589.474M1519.79 547.368H1561.9M1519.79 589.474V631.579M1519.79 589.474H1561.9M1519.79 631.579V673.684M1519.79 631.579H1561.9M1519.79 673.684V715.789M1519.79 673.684H1561.9M1519.79 715.789V757.895M1519.79 715.789H1561.9M1519.79 757.895V800M1519.79 757.895H1561.9M1519.79 800H1561.9M1561.9 0V42.1053M1561.9 0H1604M1561.9 42.1053V84.2105M1561.9 42.1053H1604M1561.9 84.2105V126.316M1561.9 84.2105H1604M1561.9 126.316V168.421M1561.9 126.316H1604M1561.9 168.421V210.526M1561.9 168.421H1604M1561.9 210.526V252.632M1561.9 210.526H1604M1561.9 252.632V294.737M1561.9 252.632H1604M1561.9 294.737V336.842M1561.9 294.737H1604M1561.9 336.842V378.947M1561.9 336.842H1604M1561.9 378.947V421.053M1561.9 378.947H1604M1561.9 421.053V463.158M1561.9 421.053H1604M1561.9 463.158V505.263M1561.9 463.158H1604M1561.9 505.263V547.368M1561.9 505.263H1604M1561.9 547.368V589.474M1561.9 547.368H1604M1561.9 589.474V631.579M1561.9 589.474H1604M1561.9 631.579V673.684M1561.9 631.579H1604M1561.9 673.684V715.789M1561.9 673.684H1604M1561.9 715.789V757.895M1561.9 715.789H1604M1561.9 757.895V800M1561.9 757.895H1604M1561.9 800H1604M1604 0V42.1053M1604 0H1646.11V42.1053M1604 42.1053V84.2105M1604 42.1053H1646.11M1604 84.2105V126.316M1604 84.2105H1646.11M1604 126.316V168.421M1604 126.316H1646.11M1604 168.421V210.526M1604 168.421H1646.11M1604 210.526V252.632M1604 210.526H1646.11M1604 252.632V294.737M1604 252.632H1646.11M1604 294.737V336.842M1604 294.737H1646.11M1604 336.842V378.947M1604 336.842H1646.11M1604 378.947V421.053M1604 378.947H1646.11M1604 421.053V463.158M1604 421.053H1646.11M1604 463.158V505.263M1604 463.158H1646.11M1604 505.263V547.368M1604 505.263H1646.11M1604 547.368V589.474M1604 547.368H1646.11M1604 589.474V631.579M1604 589.474H1646.11M1604 631.579V673.684M1604 631.579H1646.11M1604 673.684V715.789M1604 673.684H1646.11M1604 715.789V757.895M1604 715.789H1646.11M1604 757.895V800M1604 757.895H1646.11M1604 800H1646.11V757.895M1646.11 42.1053V84.2105M1646.11 84.2105V126.316M1646.11 126.316V168.421M1646.11 168.421V210.526M1646.11 210.526V252.632M1646.11 252.632V294.737M1646.11 294.737V336.842M1646.11 336.842V378.947M1646.11 378.947V421.053M1646.11 421.053V463.158M1646.11 463.158V505.263M1646.11 505.263V547.368M1646.11 547.368V589.474M1646.11 589.474V631.579M1646.11 631.579V673.684M1646.11 673.684V715.789M1646.11 715.789V757.895" stroke="url(#paint0_radial_1559_50844)" stroke-width="1.05263"/>
<defs>
<radialGradient id="paint0_radial_1559_50844" cx="0" cy="0" r="1" gradientUnits="userSpaceOnUse" gradientTransform="translate(719.792 400) rotate(90) scale(400 926.316)">
<stop stop-color="white"/>
<stop offset="1" stop-color="#82B0FF" stop-opacity="0"/>
</radialGradient>
</defs>
</svg>
